<mxfile host="app.diagrams.net" modified="2024-03-11T20:37:58.426Z" agent="Mozilla/5.0 (Windows NT 10.0; Win64; x64) AppleWebKit/537.36 (KHTML, like Gecko) Chrome/121.0.0.0 Safari/537.36" etag="XQrniJFxHOurBRhdLpCM" version="24.0.4" type="device">
  <diagram id="C5RBs43oDa-KdzZeNtuy" name="Page-1">
    <mxGraphModel dx="989" dy="514" grid="1" gridSize="10" guides="1" tooltips="1" connect="1" arrows="1" fold="1" page="1" pageScale="1" pageWidth="827" pageHeight="1169" math="0" shadow="0">
      <root>
        <mxCell id="WIyWlLk6GJQsqaUBKTNV-0" />
        <mxCell id="WIyWlLk6GJQsqaUBKTNV-1" parent="WIyWlLk6GJQsqaUBKTNV-0" />
        <mxCell id="5HFE6_uw-IyOZ-tQTGid-11" style="edgeStyle=orthogonalEdgeStyle;rounded=0;orthogonalLoop=1;jettySize=auto;html=1;entryX=0.25;entryY=0;entryDx=0;entryDy=0;" edge="1" parent="WIyWlLk6GJQsqaUBKTNV-1" source="5HFE6_uw-IyOZ-tQTGid-0" target="5HFE6_uw-IyOZ-tQTGid-7">
          <mxGeometry relative="1" as="geometry">
            <Array as="points">
              <mxPoint x="63" y="316" />
              <mxPoint x="63" y="316" />
            </Array>
          </mxGeometry>
        </mxCell>
        <mxCell id="5HFE6_uw-IyOZ-tQTGid-0" value="Initialisierungsfunktion" style="rounded=1;whiteSpace=wrap;html=1;" vertex="1" parent="WIyWlLk6GJQsqaUBKTNV-1">
          <mxGeometry x="30" y="210" width="130" height="60" as="geometry" />
        </mxCell>
        <mxCell id="5HFE6_uw-IyOZ-tQTGid-38" style="edgeStyle=orthogonalEdgeStyle;rounded=0;orthogonalLoop=1;jettySize=auto;html=1;entryX=0.25;entryY=0;entryDx=0;entryDy=0;" edge="1" parent="WIyWlLk6GJQsqaUBKTNV-1" source="5HFE6_uw-IyOZ-tQTGid-1" target="5HFE6_uw-IyOZ-tQTGid-0">
          <mxGeometry relative="1" as="geometry">
            <Array as="points">
              <mxPoint x="63" y="205" />
              <mxPoint x="63" y="205" />
            </Array>
          </mxGeometry>
        </mxCell>
        <mxCell id="5HFE6_uw-IyOZ-tQTGid-1" value="Codename&lt;div&gt;Fahrzeug&lt;/div&gt;" style="text;html=1;align=center;verticalAlign=middle;resizable=0;points=[];autosize=1;" vertex="1" parent="WIyWlLk6GJQsqaUBKTNV-1">
          <mxGeometry x="12" y="145" width="80" height="40" as="geometry" />
        </mxCell>
        <mxCell id="5HFE6_uw-IyOZ-tQTGid-37" style="edgeStyle=orthogonalEdgeStyle;rounded=0;orthogonalLoop=1;jettySize=auto;html=1;entryX=0.75;entryY=0;entryDx=0;entryDy=0;" edge="1" parent="WIyWlLk6GJQsqaUBKTNV-1" source="5HFE6_uw-IyOZ-tQTGid-2" target="5HFE6_uw-IyOZ-tQTGid-0">
          <mxGeometry relative="1" as="geometry">
            <Array as="points">
              <mxPoint x="128" y="205" />
              <mxPoint x="128" y="205" />
            </Array>
          </mxGeometry>
        </mxCell>
        <mxCell id="5HFE6_uw-IyOZ-tQTGid-2" value="Codename&lt;div&gt;Szenario&lt;/div&gt;" style="text;html=1;align=center;verticalAlign=middle;resizable=0;points=[];autosize=1;" vertex="1" parent="WIyWlLk6GJQsqaUBKTNV-1">
          <mxGeometry x="92" y="145" width="80" height="40" as="geometry" />
        </mxCell>
        <mxCell id="5HFE6_uw-IyOZ-tQTGid-13" style="edgeStyle=orthogonalEdgeStyle;rounded=0;orthogonalLoop=1;jettySize=auto;html=1;entryX=0.75;entryY=1;entryDx=0;entryDy=0;" edge="1" parent="WIyWlLk6GJQsqaUBKTNV-1" source="5HFE6_uw-IyOZ-tQTGid-7" target="5HFE6_uw-IyOZ-tQTGid-0">
          <mxGeometry relative="1" as="geometry">
            <Array as="points">
              <mxPoint x="128" y="316" />
              <mxPoint x="128" y="316" />
            </Array>
          </mxGeometry>
        </mxCell>
        <mxCell id="5HFE6_uw-IyOZ-tQTGid-7" value="Parametergenerierung" style="rounded=1;whiteSpace=wrap;html=1;" vertex="1" parent="WIyWlLk6GJQsqaUBKTNV-1">
          <mxGeometry x="30" y="362" width="130" height="60" as="geometry" />
        </mxCell>
        <mxCell id="5HFE6_uw-IyOZ-tQTGid-14" value="Szenario&lt;div&gt;Fahrzeug&lt;/div&gt;" style="text;html=1;align=center;verticalAlign=middle;whiteSpace=wrap;rounded=0;rotation=-90;" vertex="1" parent="WIyWlLk6GJQsqaUBKTNV-1">
          <mxGeometry x="32" y="302" width="60" height="30" as="geometry" />
        </mxCell>
        <mxCell id="5HFE6_uw-IyOZ-tQTGid-15" value="Parametersätze" style="text;html=1;align=center;verticalAlign=middle;resizable=0;points=[];autosize=1;strokeColor=none;fillColor=none;rotation=-90;" vertex="1" parent="WIyWlLk6GJQsqaUBKTNV-1">
          <mxGeometry x="60" y="302" width="110" height="30" as="geometry" />
        </mxCell>
        <mxCell id="5HFE6_uw-IyOZ-tQTGid-40" style="rounded=0;orthogonalLoop=1;jettySize=auto;html=1;entryX=0.5;entryY=0;entryDx=0;entryDy=0;" edge="1" parent="WIyWlLk6GJQsqaUBKTNV-1" source="5HFE6_uw-IyOZ-tQTGid-27" target="5HFE6_uw-IyOZ-tQTGid-31">
          <mxGeometry relative="1" as="geometry" />
        </mxCell>
        <mxCell id="5HFE6_uw-IyOZ-tQTGid-41" style="rounded=0;orthogonalLoop=1;jettySize=auto;html=1;entryX=0.5;entryY=0;entryDx=0;entryDy=0;" edge="1" parent="WIyWlLk6GJQsqaUBKTNV-1" source="5HFE6_uw-IyOZ-tQTGid-27" target="5HFE6_uw-IyOZ-tQTGid-30">
          <mxGeometry relative="1" as="geometry" />
        </mxCell>
        <mxCell id="5HFE6_uw-IyOZ-tQTGid-42" style="rounded=0;orthogonalLoop=1;jettySize=auto;html=1;entryX=0.5;entryY=0;entryDx=0;entryDy=0;" edge="1" parent="WIyWlLk6GJQsqaUBKTNV-1" source="5HFE6_uw-IyOZ-tQTGid-27" target="5HFE6_uw-IyOZ-tQTGid-29">
          <mxGeometry relative="1" as="geometry" />
        </mxCell>
        <mxCell id="5HFE6_uw-IyOZ-tQTGid-27" value="Umgebungsklasse" style="shape=process;whiteSpace=wrap;html=1;backgroundOutline=1;" vertex="1" parent="WIyWlLk6GJQsqaUBKTNV-1">
          <mxGeometry x="330" y="210" width="140" height="60" as="geometry" />
        </mxCell>
        <mxCell id="5HFE6_uw-IyOZ-tQTGid-28" value="" style="shape=flexArrow;endArrow=classic;html=1;rounded=0;exitX=1;exitY=0.5;exitDx=0;exitDy=0;entryX=0;entryY=0.5;entryDx=0;entryDy=0;" edge="1" parent="WIyWlLk6GJQsqaUBKTNV-1" source="5HFE6_uw-IyOZ-tQTGid-0" target="5HFE6_uw-IyOZ-tQTGid-27">
          <mxGeometry width="50" height="50" relative="1" as="geometry">
            <mxPoint x="290" y="310" as="sourcePoint" />
            <mxPoint x="340" y="260" as="targetPoint" />
          </mxGeometry>
        </mxCell>
        <mxCell id="5HFE6_uw-IyOZ-tQTGid-29" value="Kofiguration Testrunner" style="rounded=1;whiteSpace=wrap;html=1;" vertex="1" parent="WIyWlLk6GJQsqaUBKTNV-1">
          <mxGeometry x="340" y="362" width="120" height="60" as="geometry" />
        </mxCell>
        <mxCell id="5HFE6_uw-IyOZ-tQTGid-30" value="Erstellung Test Suite aus Testklasse &quot;Szenario&quot; mit externen Parametern" style="rounded=1;whiteSpace=wrap;html=1;" vertex="1" parent="WIyWlLk6GJQsqaUBKTNV-1">
          <mxGeometry x="470" y="362" width="130" height="60" as="geometry" />
        </mxCell>
        <mxCell id="5HFE6_uw-IyOZ-tQTGid-31" value="&lt;div&gt;Setup Fixtures &amp;amp;&lt;/div&gt;Ausführung Test Suite" style="rounded=1;whiteSpace=wrap;html=1;" vertex="1" parent="WIyWlLk6GJQsqaUBKTNV-1">
          <mxGeometry x="210" y="362" width="120" height="60" as="geometry" />
        </mxCell>
        <mxCell id="5HFE6_uw-IyOZ-tQTGid-59" value="&lt;ul&gt;&lt;li&gt;Straight_Offset&lt;/li&gt;&lt;li&gt;Curve&lt;/li&gt;&lt;li&gt;ACC&lt;/li&gt;&lt;li&gt;...&lt;/li&gt;&lt;/ul&gt;" style="rounded=0;whiteSpace=wrap;html=1;" vertex="1" parent="WIyWlLk6GJQsqaUBKTNV-1">
          <mxGeometry x="470" y="470" width="130" height="60" as="geometry" />
        </mxCell>
        <mxCell id="5HFE6_uw-IyOZ-tQTGid-60" value="Szenarien Testklassen" style="rounded=0;whiteSpace=wrap;html=1;" vertex="1" parent="WIyWlLk6GJQsqaUBKTNV-1">
          <mxGeometry x="470" y="450" width="130" height="20" as="geometry" />
        </mxCell>
        <mxCell id="5HFE6_uw-IyOZ-tQTGid-62" value="" style="endArrow=classic;startArrow=classic;html=1;rounded=0;entryX=0.5;entryY=1;entryDx=0;entryDy=0;exitX=0.5;exitY=0;exitDx=0;exitDy=0;" edge="1" parent="WIyWlLk6GJQsqaUBKTNV-1" source="5HFE6_uw-IyOZ-tQTGid-60" target="5HFE6_uw-IyOZ-tQTGid-30">
          <mxGeometry width="50" height="50" relative="1" as="geometry">
            <mxPoint x="340" y="390" as="sourcePoint" />
            <mxPoint x="390" y="340" as="targetPoint" />
          </mxGeometry>
        </mxCell>
        <mxCell id="5HFE6_uw-IyOZ-tQTGid-63" value="Testbericht" style="shape=note;whiteSpace=wrap;html=1;backgroundOutline=1;darkOpacity=0.05;" vertex="1" parent="WIyWlLk6GJQsqaUBKTNV-1">
          <mxGeometry x="290" y="450" width="60" height="80" as="geometry" />
        </mxCell>
        <mxCell id="5HFE6_uw-IyOZ-tQTGid-64" value="&lt;div&gt;&lt;br&gt;&lt;/div&gt;Testergebnis&lt;br&gt;Objekt" style="shape=note;whiteSpace=wrap;html=1;backgroundOutline=1;darkOpacity=0.05;" vertex="1" parent="WIyWlLk6GJQsqaUBKTNV-1">
          <mxGeometry x="190" y="450" width="68" height="80" as="geometry" />
        </mxCell>
        <mxCell id="5HFE6_uw-IyOZ-tQTGid-69" style="rounded=0;orthogonalLoop=1;jettySize=auto;html=1;entryX=0.5;entryY=0;entryDx=0;entryDy=0;entryPerimeter=0;" edge="1" parent="WIyWlLk6GJQsqaUBKTNV-1" source="5HFE6_uw-IyOZ-tQTGid-31" target="5HFE6_uw-IyOZ-tQTGid-64">
          <mxGeometry relative="1" as="geometry" />
        </mxCell>
        <mxCell id="5HFE6_uw-IyOZ-tQTGid-70" style="rounded=0;orthogonalLoop=1;jettySize=auto;html=1;entryX=0;entryY=0;entryDx=30;entryDy=0;entryPerimeter=0;" edge="1" parent="WIyWlLk6GJQsqaUBKTNV-1" source="5HFE6_uw-IyOZ-tQTGid-31" target="5HFE6_uw-IyOZ-tQTGid-63">
          <mxGeometry relative="1" as="geometry" />
        </mxCell>
      </root>
    </mxGraphModel>
  </diagram>
</mxfile>
